<svg width="24" height="24" viewBox="0 0 24 24" fill="none" xmlns="http://www.w3.org/2000/svg">
<path d="M20.4615 15.4422V9.83075L12.8635 13.9557C12.5892 14.1096 12.3014 14.1865 12 14.1865C11.6987 14.1865 11.4109 14.1096 11.1365 13.9557L3.49428 9.7885C3.33028 9.69483 3.21236 9.581 3.14053 9.447C3.06869 9.31317 3.03278 9.16417 3.03278 9C3.03278 8.83583 3.06869 8.68683 3.14053 8.553C3.21236 8.419 3.33028 8.30517 3.49428 8.2115L11.1365 4.054C11.2737 3.977 11.4134 3.91925 11.5558 3.88075C11.6981 3.84225 11.8462 3.823 12 3.823C12.1539 3.823 12.3019 3.84225 12.4443 3.88075C12.5866 3.91925 12.7264 3.977 12.8635 4.054L21.4845 8.74425C21.6384 8.82108 21.7564 8.93233 21.8385 9.078C21.9205 9.2235 21.9615 9.37825 21.9615 9.54225V15.4422C21.9615 15.6551 21.8897 15.8332 21.746 15.9767C21.6025 16.1204 21.4244 16.1922 21.2115 16.1922C20.9987 16.1922 20.8205 16.1204 20.677 15.9767C20.5334 15.8332 20.4615 15.6551 20.4615 15.4422ZM11.1365 19.3692L6.44428 16.8325C6.14944 16.6685 5.91836 16.4442 5.75103 16.1595C5.58369 15.875 5.50003 15.5654 5.50003 15.2307V11.777L11.1365 14.8307C11.4109 14.9846 11.6987 15.0615 12 15.0615C12.3014 15.0615 12.5892 14.9846 12.8635 14.8307L18.5 11.777V15.2307C18.5 15.5654 18.4164 15.875 18.249 16.1595C18.0817 16.4442 17.8506 16.6685 17.5558 16.8325L12.8635 19.3692C12.7264 19.4461 12.5866 19.5037 12.4443 19.5422C12.3019 19.5807 12.1539 19.6 12 19.6C11.8462 19.6 11.6981 19.5807 11.5558 19.5422C11.4134 19.5037 11.2737 19.4461 11.1365 19.3692Z" fill="#00C56C"/>
</svg>

